<svg width="194" height="141" viewBox="0 0 194 141" fill="none" xmlns="http://www.w3.org/2000/svg">
<path d="M82.7639 81.2549H29.5145C21.8193 81.2549 14.8384 84.245 9.57838 89.0977C6.46134 93.8034 4.62683 99.4731 4.62683 105.551C4.62683 121.956 17.8418 135.256 34.1413 135.256H87.3745C95.0697 135.256 102.051 132.266 107.311 127.413C110.428 122.707 112.262 117.038 112.262 110.96C112.278 94.555 99.0634 81.2549 82.7639 81.2549Z" fill="#206FEB"/>
<path d="M158.272 5.53955H29.7918C22.0966 5.53955 15.1157 8.52962 9.85572 13.3824C6.73868 18.0881 4.90417 23.7578 4.90417 29.8359C4.90417 46.2405 18.1191 59.5406 34.4187 59.5406H162.899C170.594 59.5406 177.575 56.5505 182.835 51.6978C185.952 46.9921 187.787 41.3224 187.787 35.2442C187.787 18.8397 174.572 5.53955 158.272 5.53955Z" fill="#206FEB"/>
<path d="M157.995 81.2549C150.3 81.2549 143.319 84.245 138.059 89.0977C134.942 93.8034 133.107 99.4731 133.107 105.551C133.107 121.956 146.322 135.256 162.622 135.256C170.317 135.256 177.298 132.266 182.558 127.413C185.675 122.707 187.51 117.038 187.51 110.96C187.526 94.555 174.295 81.2549 157.995 81.2549Z" fill="#206FEB"/>
<path d="M87.407 135.272H34.1576C17.858 135.272 4.64309 121.956 4.64309 105.551C4.64309 99.4567 6.4776 93.8033 9.59464 89.0977C3.70149 94.5223 0 102.3 0 110.96C0 127.38 13.215 140.68 29.5145 140.68H82.7477C93.008 140.68 102.034 135.419 107.327 127.429C102.083 132.282 95.1022 135.272 87.407 135.272Z" fill="#FE00FF"/>
<path d="M162.898 59.5401H34.4336C18.134 59.5401 4.91909 46.24 4.91909 29.8354C4.91909 23.7409 6.7536 18.0875 9.87064 13.3818C3.99372 18.8064 0.276001 26.5839 0.276001 35.26C0.276001 51.6646 13.491 64.9647 29.7905 64.9647H158.271C168.531 64.9647 177.558 59.7034 182.85 51.7136C177.59 56.55 170.593 59.5401 162.898 59.5401Z" fill="#FE00FF"/>
<path d="M162.638 135.273C146.339 135.273 133.124 121.972 133.124 105.568C133.124 99.4733 134.958 93.8199 138.075 89.1143C132.198 94.5389 128.48 102.316 128.48 110.992C128.48 127.397 141.695 140.697 157.995 140.697C168.255 140.697 177.282 135.436 182.574 127.446C177.314 132.282 170.333 135.273 162.638 135.273Z" fill="#FE00FF"/>
<path d="M87.3583 75.8628H34.1251C23.8648 75.8628 14.8384 81.124 9.5459 89.1139C14.8059 84.2611 21.7868 81.2711 29.482 81.2711H82.7152C99.0147 81.2711 112.23 94.5712 112.23 110.976C112.23 117.07 110.395 122.724 107.278 127.429C113.171 122.021 116.889 114.244 116.889 105.584C116.889 89.1629 103.674 75.8628 87.3583 75.8628Z" fill="#00FFE0"/>
<path d="M162.867 0.147949H34.3862C24.1259 0.147949 15.0995 5.40917 9.80701 13.399C15.067 8.5463 22.0479 5.55622 29.7431 5.55622H158.224C174.523 5.55622 187.738 18.8563 187.738 35.2609C187.738 41.3554 185.904 47.0088 182.787 51.7145C188.663 46.2898 192.381 38.5124 192.381 29.8363C192.397 13.4481 179.182 0.147949 162.867 0.147949Z" fill="#00FFE0"/>
<path d="M162.606 75.8628C152.345 75.8628 143.319 81.124 138.026 89.1139C143.286 84.2611 150.267 81.2711 157.962 81.2711C174.262 81.2711 187.477 94.5712 187.477 110.976C187.477 117.07 185.642 122.724 182.525 127.429C188.402 122.005 192.12 114.227 192.12 105.551C192.12 89.1629 178.905 75.8628 162.606 75.8628Z" fill="#00FFE0"/>
</svg>
